<svg width="149" height="25" viewBox="0 0 149 25" fill="none" xmlns="http://www.w3.org/2000/svg">
<path d="M2.85714 4.34215H1.71429C0.767143 4.34215 0 3.575 0 2.62786C0 1.68072 0.767143 0.913574 1.71429 0.913574H2.85714C3.80429 0.913574 4.57143 1.68072 4.57143 2.62786C4.57143 3.575 3.80429 4.34215 2.85714 4.34215Z" fill="#2DD4BF"/>
<path d="M6.28572 24.9137H1.71429C0.767143 24.9137 0 24.1465 0 23.1994C0 22.2523 0.767143 21.4851 1.71429 21.4851H6.28572C7.23286 21.4851 8 22.2523 8 23.1994C8 24.1465 7.23286 24.9137 6.28572 24.9137Z" fill="#2DD4BF"/>
<path d="M8.57143 9.48497H1.71429C0.767143 9.48497 0 8.71783 0 7.77068C0 6.82354 0.767143 6.0564 1.71429 6.0564H8.57143C9.51857 6.0564 10.2857 6.82354 10.2857 7.77068C10.2857 8.71783 9.51857 9.48497 8.57143 9.48497Z" fill="#FCD34D"/>
<path d="M6.28572 14.6278H1.71429C0.767143 14.6278 0 13.8606 0 12.9135C0 11.9664 0.767143 11.1992 1.71429 11.1992H6.28572C7.23286 11.1992 8 11.9664 8 12.9135C8 13.8606 7.23286 14.6278 6.28572 14.6278Z" fill="#2DD4BF"/>
<path d="M13.1429 19.7709H1.71429C0.767143 19.7709 0 19.0037 0 18.0566C0 17.1094 0.767143 16.3423 1.71429 16.3423H13.1429C14.09 16.3423 14.8571 17.1094 14.8571 18.0566C14.8571 19.0037 14.09 19.7709 13.1429 19.7709Z" fill="#FCD34D"/>
<path d="M12.0001 4.34215H7.42864C6.4815 4.34215 5.71436 3.575 5.71436 2.62786C5.71436 1.68072 6.4815 0.913574 7.42864 0.913574H12.0001C12.9472 0.913574 13.7144 1.68072 13.7144 2.62786C13.7144 3.575 12.9472 4.34215 12.0001 4.34215Z" fill="#A78BFA"/>
<path d="M19.9999 9.48497H13.1428C12.1956 9.48497 11.4285 8.71783 11.4285 7.77068C11.4285 6.82354 12.1956 6.0564 13.1428 6.0564H19.9999C20.947 6.0564 21.7142 6.82354 21.7142 7.77068C21.7142 8.71783 20.947 9.48497 19.9999 9.48497Z" fill="#2DD4BF"/>
<path d="M22.2857 14.6278H10.8571C9.90997 14.6278 9.14282 13.8606 9.14282 12.9135C9.14282 11.9664 9.90997 11.1992 10.8571 11.1992H22.2857C23.2328 11.1992 24 11.9664 24 12.9135C24 13.8606 23.2328 14.6278 22.2857 14.6278Z" fill="#A78BFA"/>
<path d="M20 19.7709H17.7143C16.7671 19.7709 16 19.0037 16 18.0566C16 17.1094 16.7671 16.3423 17.7143 16.3423H20C20.9471 16.3423 21.7143 17.1094 21.7143 18.0566C21.7143 19.0037 20.9471 19.7709 20 19.7709Z" fill="#2DD4BF"/>
<path d="M12 24.9137H10.8571C9.90997 24.9137 9.14282 24.1465 9.14282 23.1994C9.14282 22.2523 9.90997 21.4851 10.8571 21.4851H12C12.9471 21.4851 13.7143 22.2523 13.7143 23.1994C13.7143 24.1465 12.9471 24.9137 12 24.9137Z" fill="#A78BFA"/>
<path d="M33.1428 21.4849V4.34204H38.2371C43.0371 4.34204 46.8328 7.40347 46.8328 12.9135C46.8328 18.4235 43.0371 21.4849 38.2371 21.4849H33.1428ZM35.3471 19.4763H38.1628C41.4685 19.4763 44.53 17.5906 44.53 12.9135C44.53 8.23633 41.4685 6.32633 38.1628 6.32633H35.3471V19.4778V19.4763Z" fill="white"/>
<path d="M48.5671 15.3134C48.5671 11.6163 51.1629 8.94629 54.8371 8.94629C58.5114 8.94629 61.1314 11.6163 61.1314 15.3134C61.1314 19.0106 58.4871 21.6806 54.8371 21.6806C51.1871 21.6806 48.5671 19.012 48.5671 15.3134ZM58.9757 15.3134C58.9757 12.6691 57.31 10.8077 54.8371 10.8077C52.3643 10.8077 50.6986 12.6691 50.6986 15.3134C50.6986 17.9577 52.3643 19.8191 54.8371 19.8191C57.31 19.8191 58.9757 17.9577 58.9757 15.3134Z" fill="white"/>
<path d="M62.8271 15.3134C62.8271 11.4934 65.2757 8.94629 68.95 8.94629C71.8157 8.94629 73.9214 10.5134 74.3629 12.962L72.3057 13.3777C72.0357 11.8849 70.7386 10.8063 69 10.8063C66.5757 10.8063 65.0086 12.5934 65.0086 15.312C65.0086 18.0306 66.5757 19.8177 69 19.8177C70.7386 19.8177 72.0129 18.862 72.3557 17.222L74.3886 17.6377C73.85 20.1849 71.7929 21.6777 68.9514 21.6777C65.2786 21.6777 62.8286 19.1306 62.8286 15.3106L62.8271 15.3134Z" fill="white"/>
<path d="M87.2758 9.14205V21.4849H85.1943V19.1578C84.3372 20.6278 82.8429 21.6806 80.9586 21.6806C78.3872 21.6806 76.55 19.9421 76.55 17.3221V9.14205H78.6315V16.9292C78.6315 18.5949 79.6843 19.7949 81.4229 19.7949C83.7244 19.7949 85.1943 17.8106 85.1943 14.5535V9.14062H87.2758V9.14205Z" fill="white"/>
<path d="M90.3242 21.4849V9.142H92.4056V11.4691C93.0171 10.0006 94.2428 8.94629 96.1285 8.94629C98.1371 8.94629 99.7042 9.87629 100.144 11.542C100.806 10.072 102.276 8.94629 104.137 8.94629C106.781 8.94629 108.447 10.612 108.447 13.2077V21.4849H106.366V13.6234C106.366 11.9334 105.411 10.7834 103.671 10.7834C101.566 10.7834 100.414 12.6691 100.414 15.2891V21.4849H98.3328V13.6234C98.3328 11.9334 97.3771 10.7834 95.6628 10.7834C93.5571 10.7834 92.4056 12.6691 92.4056 15.2891V21.4849H90.3242Z" fill="white"/>
<path d="M121.173 13.5749V21.4849H119.116V19.3792C118.406 20.7992 116.788 21.6806 115.001 21.6806C112.528 21.6806 110.838 20.162 110.838 18.032C110.838 15.6563 112.773 14.3592 116.716 13.9663L119.116 13.6963V13.452C119.116 11.762 117.916 10.6849 116.103 10.6849C114.413 10.6849 113.213 11.6892 113.041 13.3549L111.107 12.9878C111.474 10.5392 113.507 8.94775 116.103 8.94775C119.091 8.94775 121.173 10.7106 121.173 13.5763V13.5749ZM119.116 15.902V15.3135L116.716 15.5835C114.217 15.8535 112.92 16.7106 112.92 18.0078C112.92 19.1592 113.9 19.9663 115.32 19.9663C117.72 19.9663 119.116 18.3749 119.116 15.9006V15.902Z" fill="white"/>
<path d="M130.436 21.3879C129.823 21.6079 129.163 21.6807 128.502 21.6807C126.396 21.6807 124.853 20.505 124.853 17.7879V10.9793H122.552V9.14216H124.853V5.39502H126.934V9.14216H130.24V10.9793H126.934V17.8607C126.934 19.1579 127.669 19.795 128.747 19.795C129.237 19.795 129.8 19.7222 130.29 19.4764L130.437 21.3864L130.436 21.3879Z" fill="white"/>
<path d="M131.856 5.37063C131.856 4.53778 132.469 3.90063 133.301 3.90063C134.134 3.90063 134.796 4.53778 134.796 5.37063C134.796 6.20349 134.159 6.81635 133.301 6.81635C132.444 6.81635 131.856 6.17921 131.856 5.37063ZM132.271 21.4849V9.14206H134.353V21.4849H132.271Z" fill="white"/>
<path d="M136.648 15.3134C136.648 11.4934 139.097 8.94629 142.771 8.94629C145.637 8.94629 147.743 10.5134 148.184 12.962L146.127 13.3777C145.857 11.8849 144.56 10.8063 142.821 10.8063C140.397 10.8063 138.83 12.5934 138.83 15.312C138.83 18.0306 140.397 19.8177 142.821 19.8177C144.56 19.8177 145.834 18.862 146.177 17.222L148.21 17.6377C147.671 20.1849 145.614 21.6777 142.773 21.6777C139.1 21.6777 136.65 19.1306 136.65 15.3106L136.648 15.3134Z" fill="white"/>
</svg>
